HIERARCHY
ROOT Beta:Hips
{
	OFFSET 0.00 0.00 0.00
	CHANNELS 6 Xposition Yposition Zposition Yrotation Xrotation Zrotation
	JOINT Beta:Spine
	{
		OFFSET	0.0000	9.2263	1.5771
		CHANNELS 3 Xrotation Yrotation Zrotation
		JOINT Beta:Spine1
		{
			OFFSET	0.0000	16.2540	-0.1656
			CHANNELS 3 Xrotation Yrotation Zrotation
			JOINT Beta:Spine2
			{
				OFFSET	0.0000	13.6396	-1.2923
				CHANNELS 3 Xrotation Yrotation Zrotation
				JOINT Beta:Neck
				{
					OFFSET	0.0000	13.8774	-4.3542
					CHANNELS 3 Xrotation Yrotation Zrotation
					JOINT Beta:Neck1
					{
						OFFSET	0.0000	4.3400	0.9269
						CHANNELS 3 Xrotation Yrotation Zrotation
						JOINT Beta:Head
						{
							OFFSET	0.0000	4.0266	0.8585
							CHANNELS 3 Xrotation Yrotation Zrotation
							End Site
							{
								OFFSET 0.0000 23.0297 0.1231
							}
						}
					}
				}
				JOINT Beta:LeftShoulder
				{
					OFFSET	6.1442	10.1870	-3.7932
					CHANNELS 3 Zrotation Xrotation Yrotation
					JOINT Beta:LeftArm
					{
						OFFSET	12.3191	-1.1130	-1.7935
						CHANNELS 3 Zrotation Xrotation Yrotation
						JOINT Beta:LeftForeArm
						{
							OFFSET	27.6870	0.0000	0.0000
							CHANNELS 3 Xrotation Zrotation Yrotation
							JOINT Beta:LeftHand
							{
								OFFSET	27.8738	0.0000	0.0000
								CHANNELS 3 Zrotation Yrotation Xrotation
								JOINT Beta:LeftHandThumb1
								{
									OFFSET	2.3785	-1.0029	2.6209
									CHANNELS 3 Zrotation Xrotation Yrotation
									JOINT Beta:LeftHandThumb2
									{
										OFFSET	3.3624	-1.0029	2.8398
										CHANNELS 3 Zrotation Xrotation Yrotation
										JOINT Beta:LeftHandThumb3
										{
											OFFSET	4.5018	-1.3445	2.1783
											CHANNELS 3 Zrotation Xrotation Yrotation
											End Site
											{
												OFFSET 2.6000 -1.0000 1.0000
											}
										}
									}
								}
								JOINT Beta:LeftHandMiddle1
								{
									OFFSET	10.4639	0.6148	0.4298
									CHANNELS 3 Zrotation Xrotation Yrotation
									JOINT Beta:LeftHandMiddle2
									{
										OFFSET	5.7921	0.0000	0.0000
										CHANNELS 3 Zrotation Xrotation Yrotation
										JOINT Beta:LeftHandMiddle3
										{
											OFFSET	3.7132	0.0000	0.0000
											CHANNELS 3 Zrotation Xrotation Yrotation
											End Site
											{
												OFFSET 2.3000 0.0000 0.0000
											}
										}
									}
								}
								JOINT Beta:LeftHandIndex1
								{
									OFFSET	10.3945	0.6148	2.7055
									CHANNELS 3 Zrotation Xrotation Yrotation
									JOINT Beta:LeftHandIndex2
									{
										OFFSET	5.5493	0.0000	0.0000
										CHANNELS 3 Zrotation Xrotation Yrotation
										JOINT Beta:LeftHandIndex3
										{
											OFFSET	3.3911	0.0000	0.0000
											CHANNELS 3 Zrotation Xrotation Yrotation
											End Site
											{
												OFFSET 2.5000 0.0000 0.0000
											}
										}
									}
								}
								JOINT Beta:LeftHandRing1
								{
									OFFSET	10.3252	0.3211	-1.8755
									CHANNELS 3 Zrotation Xrotation Yrotation
									JOINT Beta:LeftHandRing2
									{
										OFFSET	5.4452	0.0000	0.0000
										CHANNELS 3 Zrotation Xrotation Yrotation
										JOINT Beta:LeftHandRing3
										{
											OFFSET	3.7132	0.0000	0.0000
											CHANNELS 3 Zrotation Xrotation Yrotation
											End Site
											{
												OFFSET 2.0000 0.0000 0.0000
											}
										}
									}
								}
								JOINT Beta:LeftHandPinky1
								{
									OFFSET	10.0130	-0.0783	-3.9671
									CHANNELS 3 Zrotation Xrotation Yrotation
									JOINT Beta:LeftHandPinky2
									{
										OFFSET	3.6763	0.0000	0.0000
										CHANNELS 3 Zrotation Xrotation Yrotation
										JOINT Beta:LeftHandPinky3
										{
											OFFSET	2.8113	0.0000	0.0000
											CHANNELS 3 Zrotation Xrotation Yrotation
											End Site
											{
												OFFSET 2.9000 0.0000 0.0000
											}
										}
									}
								}
							}
						}
					}
				}
				JOINT Beta:RightShoulder
				{
					OFFSET	-6.1402	10.1870	-3.7932
					CHANNELS 3 Zrotation Xrotation Yrotation
					JOINT Beta:RightArm
					{
						OFFSET	-12.3231	-1.1130	-1.7935
						CHANNELS 3 Zrotation Xrotation Yrotation
						JOINT Beta:RightForeArm
						{
							OFFSET	-27.6870	0.0000	0.0000
							CHANNELS 3 Xrotation Zrotation Yrotation
							JOINT Beta:RightHand
							{
								OFFSET	-27.8738	0.0000	0.0000
								CHANNELS 3 Zrotation Yrotation Xrotation
								JOINT Beta:RightHandThumb1
								{
									OFFSET	-2.5178	-0.9367	2.5137
									CHANNELS 3 Zrotation Xrotation Yrotation
									JOINT Beta:RightHandThumb2
									{
										OFFSET	-3.2638	-1.0870	2.9669
										CHANNELS 3 Zrotation Xrotation Yrotation
										JOINT Beta:RightHandThumb3
										{
											OFFSET	-4.4165	-1.3703	2.1350
											CHANNELS 3 Zrotation Xrotation Yrotation
											End Site
											{
												OFFSET -2.6000 -1.0000 1.0000
											}
										}
									}
								}
								JOINT Beta:RightHandIndex1
								{
									OFFSET	-10.4665	0.4896	2.7120
									CHANNELS 3 Zrotation Xrotation Yrotation
									JOINT Beta:RightHandIndex2
									{
										OFFSET	-5.3768	0.0000	0.0000
										CHANNELS 3 Zrotation Xrotation Yrotation
										JOINT Beta:RightHandIndex3
										{
											OFFSET	-3.3855	0.0000	0.0000
											CHANNELS 3 Zrotation Xrotation Yrotation
											End Site
											{
												OFFSET -2.6000 0.0000 0.0000
											}
										}
									}
								}
								JOINT Beta:RightHandMiddle1
								{
									OFFSET	-10.7596	0.4896	0.4278
									CHANNELS 3 Zrotation Xrotation Yrotation
									JOINT Beta:RightHandMiddle2
									{
										OFFSET	-5.6168	0.0000	0.0000
										CHANNELS 3 Zrotation Xrotation Yrotation
										JOINT Beta:RightHandMiddle3
										{
											OFFSET	-3.7364	0.0000	0.0000
											CHANNELS 3 Zrotation Xrotation Yrotation
											End Site
											{
												OFFSET -2.3000 0.0000 0.0000
											}
										}
									}
								}
								JOINT Beta:RightHandRing1
								{
									OFFSET	-10.4702	0.3879	-1.9363
									CHANNELS 3 Zrotation Xrotation Yrotation
									JOINT Beta:RightHandRing2
									{
										OFFSET	-5.4013	0.0000	0.0000
										CHANNELS 3 Zrotation Xrotation Yrotation
										JOINT Beta:RightHandRing3
										{
											OFFSET	-3.3916	0.0000	0.0000
											CHANNELS 3 Zrotation Xrotation Yrotation
											End Site
											{
												OFFSET -2.2000 0.0000 0.0000
											}
										}
									}
								}
								JOINT Beta:RightHandPinky1
								{
									OFFSET	-9.9715	-0.1191	-3.9540
									CHANNELS 3 Zrotation Xrotation Yrotation
									JOINT Beta:RightHandPinky2
									{
										OFFSET	-3.6528	0.0000	0.0000
										CHANNELS 3 Zrotation Xrotation Yrotation
										JOINT Beta:RightHandPinky3
										{
											OFFSET	-2.7820	0.0000	0.0000
											CHANNELS 3 Zrotation Xrotation Yrotation
											End Site
											{
												OFFSET -2.9000 0.0000 0.0000
											}
										}
									}
								}
							}
						}
					}
				}
			}
		}
	}
	JOINT Beta:LeftUpLeg
	{
		OFFSET	9.6338	-3.2733	0.0000
		CHANNELS 3 Xrotation Yrotation Zrotation
		JOINT Beta:LeftLeg
		{
			OFFSET	0.0000	-41.7300	-1.7300
			CHANNELS 3 Xrotation Yrotation Zrotation
			JOINT Beta:LeftFoot
			{
				OFFSET	0.0126	-39.1900	-0.8477
				CHANNELS 3 Xrotation Yrotation Zrotation
				JOINT Beta:LeftToeBase
				{
					OFFSET	-0.1833	-12.1931	8.2823
					CHANNELS 3 Xrotation Yrotation Zrotation
					End Site
					{
						OFFSET 0.0000 0.0000 10.1681
					}
				}
			}
		}
	}
	JOINT Beta:RightUpLeg
	{
		OFFSET	-9.6338	-3.2733	0.0000
		CHANNELS 3 Xrotation Yrotation Zrotation
		JOINT Beta:RightLeg
		{
			OFFSET	0.0000	-41.7300	-1.7300
			CHANNELS 3 Xrotation Yrotation Zrotation
			JOINT Beta:RightFoot
			{
				OFFSET	0.0126	-39.1900	-0.8477
				CHANNELS 3 Xrotation Yrotation Zrotation
				JOINT Beta:RightToeBase
				{
					OFFSET	-0.1833	-12.1931	8.2823
					CHANNELS 3 Xrotation Yrotation Zrotation
					End Site
					{
						OFFSET 0.0032 0.0000 10.1681
					}
				}
			}
		}
	}
}
MOTION
Frames: 5
Frame Time: 0.0333333
38.4336 94.9001 131.4576 54.9174 -0.7065 -5.6762 15.5903 2.4883 3.3991 -3.5567 1.5627 -0.3049 -3.5025 1.5678 -0.4943 4.1376 8.6057 1.0937 -0.0000 0.0000 -0.0000 -5.0696 10.7347 -7.7551 -2.6123 2.3077 3.2896 -73.5716 4.5172 -5.3188 13.0174 -8.6064 -10.2552 12.0621 -0.2928 5.3327 2.2180 1.8063 17.6601 -0.0256 -3.2733 -10.3591 3.8216 -2.8670 -3.0438 -25.1139 -0.2839 5.2516 -21.5092 0.4012 -2.1618 -21.4318 0.4035 -2.1585 -23.8440 1.0237 8.7234 -18.9995 0.2675 -1.8774 -19.6054 0.3374 -1.9518 -32.3208 0.0204 1.3706 -24.8919 0.5489 -2.4773 -24.6397 0.5282 -2.4634 -39.2836 -0.1297 -2.8438 -29.3237 0.7453 -2.8960 -28.8534 0.7190 -2.8461 1.9374 3.3599 -2.4317 70.7283 28.2047 4.4695 4.3135 -3.3173 24.6530 -7.7746 -4.5061 -22.2252 3.9799 7.0833 -20.9939 -0.3550 -1.1728 2.8454 -4.2907 -0.0386 -4.7384 12.1211 1.8545 2.4745 16.1814 0.1321 1.2643 22.9144 0.3640 1.7959 19.0935 0.7685 -2.1102 25.1615 0.4468 1.9786 24.3621 0.4103 1.9240 21.8649 0.0952 -6.1516 26.5217 0.4871 2.0758 23.5229 0.3792 1.8654 21.2597 0.0113 -6.1903 23.2418 0.3748 1.8527 21.2970 0.3100 1.6995 -30.9380 6.7322 4.3345 62.9798 -5.5205 0.4488 -11.4153 -0.1749 1.1871 1.9487 3.0522 -2.6088 -6.2993 -14.6668 -2.4421 23.2875 8.1825 1.7954 -17.8815 -6.5204 11.1523 7.7589 9.3442 -3.7200 
40.6799 94.7744 134.0165 57.5005 -0.1494 -5.6284 14.8136 2.6811 3.3731 -3.4320 1.8332 -0.3890 -3.3658 1.8221 -0.6009 4.9019 8.0345 0.6919 -0.0000 0.0000 -0.0000 -5.5417 9.7912 -6.6366 -2.2244 2.2742 4.2470 -73.5590 3.7252 -3.8462 12.4259 -8.8024 -10.0942 12.3245 -0.0113 5.3373 2.3645 1.5334 18.0028 0.0696 -3.0990 -9.6208 3.9340 -2.5947 -2.2181 -25.3867 0.1923 3.6287 -22.0890 0.4229 -2.2163 -22.0078 0.4262 -2.2127 -23.9170 1.4581 6.7207 -19.5579 0.2864 -1.9314 -20.1148 0.3557 -2.0007 -32.3859 0.5149 -0.0282 -25.4254 0.5721 -2.5274 -25.1833 0.5515 -2.5132 -39.0849 0.3856 -3.9854 -29.7030 0.7648 -2.9284 -29.2607 0.7397 -2.8817 2.2343 3.3592 -2.0855 70.0277 27.7147 4.8667 4.1683 -3.5215 26.1826 -7.9608 -4.5836 -21.0678 4.0242 6.8546 -21.6042 -0.3488 -1.1862 2.8991 -4.2921 -0.0315 -4.7583 12.8996 1.9006 2.4408 16.9453 0.1499 1.3239 23.8095 0.3923 1.8617 19.7898 0.8664 -1.9256 25.4470 0.4567 1.9982 24.6935 0.4216 1.9489 22.5044 0.2507 -5.9057 26.6896 0.4926 2.0869 23.5514 0.3804 1.8673 22.1719 0.1325 -5.8130 23.5170 0.3841 1.8725 21.7027 0.3233 1.7299 -31.8996 8.7669 2.9995 52.2950 -0.2090 0.7116 -12.8032 0.0758 -0.6280 2.9866 -1.0850 0.3111 -2.6420 -14.8583 -1.1345 21.0540 6.6493 1.5833 -19.5263 -7.5939 11.2572 7.6404 9.3273 -3.8305 
43.0581 94.5617 136.4342 59.7962 0.3516 -5.7486 14.2293 2.8572 3.4815 -3.4426 2.0508 -0.4859 -3.3638 2.0295 -0.7157 5.5043 7.1068 1.0644 -0.0000 0.0000 -0.0000 -5.8620 8.9113 -6.4934 -2.1223 2.2323 5.4522 -73.3143 3.1473 -2.4720 12.1441 -9.0641 -9.8198 12.5891 0.2676 5.3520 2.4999 1.2744 18.3278 0.1633 -2.9186 -8.8668 4.0501 -2.2999 -1.3308 -25.6165 0.6848 1.9210 -22.6415 0.4441 -2.2677 -22.5560 0.4482 -2.2637 -23.9074 1.8934 4.6206 -20.1012 0.3053 -1.9838 -20.5953 0.3732 -2.0468 -32.3779 1.0138 -1.4810 -25.9507 0.5953 -2.5762 -25.7187 0.5749 -2.5621 -38.8066 0.9128 -5.1605 -30.0790 0.7845 -2.9608 -29.6659 0.7604 -2.9172 2.1877 3.3475 -1.8243 69.5541 27.7985 4.9384 3.1120 -3.2304 27.6799 -8.3523 -4.0638 -20.2952 4.0676 6.5899 -22.3053 -0.3415 -1.2020 2.9608 -4.2941 -0.0235 -4.7813 13.7960 1.9547 2.4011 17.8247 0.1713 1.3922 24.8399 0.4266 1.9372 20.5910 0.9797 -1.7137 25.7757 0.4677 2.0211 25.0750 0.4348 1.9771 23.2394 0.4302 -5.6231 26.8828 0.4992 2.0999 23.5843 0.3817 1.8696 23.2212 0.2730 -5.3798 23.8339 0.3948 1.8952 22.1699 0.3387 1.7646 -32.0270 11.1096 1.4550 39.9466 5.9462 1.0378 -10.2281 -1.0497 -1.0915 2.6803 -1.7942 0.9502 1.5593 -15.0036 0.4799 17.6955 4.8514 1.4488 -20.2842 -8.1268 11.6484 7.3811 9.2930 -4.0723 
45.5332 94.2745 138.7392 61.6926 0.7637 -5.9795 13.8516 3.0813 3.6839 -3.5236 2.2857 -0.6077 -3.4287 2.2546 -0.8595 4.8856 6.4319 1.2189 -0.0000 0.0000 -0.0000 -5.5837 8.1287 -6.1051 -2.2218 2.1911 6.6935 -72.8954 2.7368 -1.2119 12.4952 -9.2139 -9.6013 12.3588 0.6916 5.3954 2.6215 1.0349 18.6350 0.2549 -2.7377 -8.1152 4.1659 -1.9922 -0.4109 -25.7931 1.1802 0.1723 -23.1563 0.4647 -2.3156 -23.0660 0.4690 -2.3110 -23.8163 2.3189 2.4758 -20.6167 0.3237 -2.0334 -21.0376 0.3897 -2.0890 -32.2975 1.5060 -2.9541 -26.4545 0.6175 -2.6217 -26.2319 0.5978 -2.6089 -38.4556 1.4391 -6.3439 -30.4401 0.8036 -2.9918 -30.0561 0.7805 -2.9513 2.1508 3.3817 -1.9786 68.8406 28.1386 5.6837 1.9412 -2.7448 28.8195 -8.1835 -3.3788 -19.9368 4.1060 6.2980 -23.0721 -0.3335 -1.2192 3.0285 -4.2967 -0.0150 -4.8064 14.7788 2.0151 2.3566 18.7891 0.1959 1.4667 25.9698 0.4656 2.0195 21.4690 1.1047 -1.4822 26.1362 0.4799 2.0464 25.4933 0.4494 2.0078 24.0440 0.6277 -5.3142 27.0946 0.5065 2.1141 23.6203 0.3832 1.8721 24.3706 0.4283 -4.9065 24.1814 0.4066 1.9198 22.6822 0.3558 1.8027 -31.3114 13.7931 0.0743 27.9094 8.4069 1.1790 -5.7267 -2.0138 -0.4531 0.5575 -2.2854 1.8457 5.2456 -15.3507 1.8398 15.1060 2.7339 1.5964 -19.9383 -7.7134 13.0156 6.4444 9.1683 -4.9448 
48.1233 93.8899 140.9429 63.0391 0.9931 -6.2577 13.8430 3.4263 3.8099 -3.7423 2.6407 -0.7709 -3.6229 2.5938 -1.0662 4.0137 5.9108 1.5815 -0.0000 0.0000 -0.0000 -5.3098 7.5656 -5.7630 -2.1161 2.1720 7.4297 -72.4519 1.4930 -0.2099 13.9196 -9.4015 -8.6504 11.5409 0.0248 5.3785 2.7266 0.8208 18.9240 0.3421 -2.5610 -7.3841 4.2772 -1.6811 0.5125 -25.9084 1.6651 -1.5737 -23.6230 0.4839 -2.3587 -23.5274 0.4882 -2.3538 -23.6471 2.7241 0.3390 -21.0914 0.3411 -2.0790 -21.4325 0.4046 -2.1267 -32.1477 1.9804 -4.4137 -26.9230 0.6385 -2.6636 -26.7095 0.6195 -2.6523 -38.0406 1.9517 -7.5103 -30.7740 0.8217 -3.0206 -30.4189 0.7994 -2.9831 2.1499 3.3787 -2.0393 67.8370 28.8129 6.5469 1.7072 -2.6328 29.5438 -8.7602 -4.0802 -19.7371 4.1360 5.9880 -23.8797 -0.3251 -1.2373 3.1002 -4.2996 -0.0059 -4.8332 15.8168 2.0802 2.3085 19.8074 0.2233 1.5450 27.1630 0.5088 2.1058 22.3957 1.2375 -1.2388 26.5168 0.4932 2.0730 25.9352 0.4647 2.0402 24.8920 0.8370 -4.9887 27.3185 0.5142 2.1292 23.6583 0.3848 1.8747 25.5832 0.5935 -4.4084 24.5484 0.4193 1.9457 23.2232 0.3743 1.8428 -30.2374 14.5464 -1.0900 18.1511 7.9171 0.9806 -4.0136 -2.5373 0.5342 -0.4916 -3.0222 2.6427 7.3395 -16.2307 2.3457 15.5996 0.7707 2.1378 -19.1276 -6.4492 15.6098 4.3806 8.8898 -6.8510 
